<svg width="109" height="17" viewBox="0 0 109 17" fill="none" xmlns="http://www.w3.org/2000/svg">
<path d="M12.7468 10.5H6.99827V14.625C6.99827 16.625 8.8728 16.625 9.12274 16.625V16.875H0V16.625C0.249938 16.625 2.12447 16.5 2.12447 14.625V2.25C2.12447 0.25 0.249938 0.25 0 0.25V0H12.7468C16.7459 0 18.7454 2.625 18.7454 5.25C18.7454 7.875 16.8708 10.5 12.7468 10.5ZM10.4974 1.125H6.99827V9.375H10.4974C13.1218 9.375 14.3714 7.5 14.3714 5.25C14.3714 3.125 13.1218 1.125 10.4974 1.125ZM35.7412 17L27.8681 10.5V14.625C27.8681 16.625 29.7426 16.625 29.9926 16.625V16.875H20.8698V16.625C21.1198 16.625 22.9943 16.5 22.9943 14.625V2.25C22.9943 0.25 21.1198 0.25 20.8698 0.25V0H33.6167C37.6157 0 39.6152 2.625 39.6152 5.25C39.6152 7.875 37.7407 10.5 33.6167 10.5H29.7426C30.6174 11.375 32.492 11.75 34.1166 11.75C34.8664 11.75 35.6162 11.625 36.241 11.5L42.7394 16.75V17H35.7412ZM31.3672 1.125H27.7431V9.375H31.3672C33.9916 9.375 35.2413 7.5 35.2413 5.25C35.2413 3.125 33.9916 1.125 31.3672 1.125ZM56.736 17V16.75C57.6107 16.75 57.9857 16.5 57.9857 15.875C57.9857 15.625 57.8607 15.25 57.7357 14.875L55.9861 12H48.8629L47.6132 14.5C47.4882 14.875 47.3633 15.25 47.3633 15.625C47.3633 16.25 47.6132 16.625 48.363 16.625V16.875H43.9891V16.625C44.9889 16.625 45.7387 15.875 46.3635 14.625L51.6122 4.125L50.1126 1.75C49.3628 0.5 48.613 0.25 47.7382 0.25V0H54.7365L63.2343 14.875C63.7342 15.75 64.3591 16.75 65.4838 16.75V17H56.736ZM52.2371 5.375L49.4878 10.75H55.3613L52.2371 5.375ZM77.2309 17H67.2334V16.75C67.4833 16.75 69.3578 16.625 69.3578 14.75V2.375C69.3578 0.375 67.4833 0.375 67.2334 0.375V0.125H77.2309C81.7298 0.125 86.3536 3 86.3536 8.625C86.4786 14.125 81.7298 17 77.2309 17ZM80.73 5.375C80.73 2.25 78.7305 1.125 76.606 1.125H74.2316V15.875H76.606C78.7305 15.875 80.73 14.75 80.73 11.625V5.375ZM99.4754 17V16.75C100.35 16.75 100.725 16.5 100.725 15.875C100.725 15.625 100.6 15.25 100.475 14.875L98.8505 12H91.7273L90.4776 14.5C90.3526 14.875 90.2277 15.25 90.2277 15.625C90.2277 16.25 90.4776 16.625 91.2274 16.625V16.875H86.8535V16.625C87.8533 16.625 88.6031 15.875 89.2279 14.625L94.4766 4.125L92.977 1.75C92.2272 0.5 91.4774 0.25 90.6026 0.25V0H97.4759L105.974 14.875C106.474 15.75 107.098 16.75 108.223 16.75V17H99.4754ZM94.9765 5.375L92.2272 10.875H98.1007L94.9765 5.375Z" fill="black"/>
</svg>
